<svg xmlns="http://www.w3.org/2000/svg" xmlns:xlink="http://www.w3.org/1999/xlink" preserveAspectRatio="xMidYMid" width="80" height="80" viewBox="0 0 80 80">
  <defs>
    <style>
      .cls-1 {
        filter: url(#color-overlay-1);
      }

      .cls-2 {
        fill: #737a80;
        fill-rule: evenodd;
      }
    </style>

    <filter id="color-overlay-1" filterUnits="userSpaceOnUse">
      <feFlood flood-color="#737a80"/>
      <feComposite operator="in" in2="SourceGraphic"/>
      <feBlend in2="SourceGraphic" result="solidFill"/>
    </filter>
  </defs>
  <g id="artboard-1">
    <path d="M40.000,70.000 C23.769,70.000 10.583,57.102 10.050,41.000 L10.000,41.000 L10.000,39.000 L10.050,39.000 C10.583,22.898 23.769,10.000 40.000,10.000 C56.569,10.000 70.000,23.431 70.000,40.000 C70.000,56.569 56.569,70.000 40.000,70.000 ZM40.000,12.001 C24.874,12.001 12.582,24.004 12.051,39.000 L12.933,39.000 C13.262,38.743 13.728,37.475 14.011,36.707 C14.682,34.885 15.375,33.000 17.000,33.000 C18.613,33.000 19.223,35.280 20.342,40.023 C20.739,41.708 21.354,44.313 21.891,45.500 C22.375,43.938 22.795,40.231 23.090,37.635 C23.916,30.353 24.324,28.000 26.000,28.000 C27.641,28.000 28.166,30.185 28.960,33.491 C29.288,34.853 30.285,39.000 31.000,39.000 L34.101,39.000 C34.579,36.165 37.029,34.000 40.000,34.000 C43.314,34.000 46.000,36.686 46.000,40.000 C46.000,43.314 43.314,46.000 40.000,46.000 C37.029,46.000 34.579,43.835 34.101,41.000 L31.000,41.000 C28.709,41.000 27.886,37.580 27.016,33.958 C26.771,32.939 26.438,31.555 26.121,30.685 C25.710,32.278 25.340,35.540 25.077,37.860 C24.225,45.372 23.769,48.000 22.000,48.000 C20.250,48.000 19.560,45.423 18.396,40.483 C17.969,38.678 17.350,36.052 16.857,35.151 C16.556,35.582 16.132,36.733 15.888,37.397 C15.236,39.169 14.562,41.000 13.000,41.000 L12.051,41.000 C12.582,55.996 24.874,67.999 40.000,67.999 C55.463,67.999 67.999,55.463 67.999,40.000 C67.999,24.537 55.463,12.001 40.000,12.001 ZM40.000,60.000 C32.971,60.000 26.801,56.366 23.234,50.883 C23.808,50.579 24.366,50.203 24.893,49.765 C28.100,54.716 33.662,58.000 40.000,58.000 C49.941,58.000 58.000,49.941 58.000,40.000 C58.000,30.059 49.941,22.000 40.000,22.000 C35.964,22.000 32.250,23.345 29.248,25.589 C28.463,25.298 27.634,25.107 26.763,25.035 C30.291,21.912 34.917,20.000 40.000,20.000 C51.046,20.000 60.000,28.954 60.000,40.000 C60.000,51.046 51.046,60.000 40.000,60.000 Z" class="cls-2"/>
  </g>
</svg>
