<?xml version="1.0" encoding="utf-8"?>
<!-- Generator: Adobe Illustrator 19.1.0, SVG Export Plug-In . SVG Version: 6.00 Build 0)  -->
<svg version="1.1" id="Layer_1" xmlns="http://www.w3.org/2000/svg" xmlns:xlink="http://www.w3.org/1999/xlink" x="0px" y="0px"
	 viewBox="283 366 924.5 53.3" style="enable-background:new 283 366 924.5 53.3;" xml:space="preserve">
<style type="text/css">
	.st0{fill:url(#SVGID_1_);}
	.st1{fill:url(#SVGID_2_);}
	.st2{fill:url(#SVGID_3_);}
	.st3{fill:url(#SVGID_4_);}
	.st4{fill:url(#SVGID_5_);}
	.st5{fill:url(#SVGID_6_);}
	.st6{fill:url(#SVGID_7_);}
	.st7{fill:url(#SVGID_8_);}
	.st8{fill:url(#SVGID_9_);}
	.st9{fill:url(#SVGID_10_);}
	.st10{fill:url(#SVGID_11_);}
	.st11{fill:url(#SVGID_12_);}
	.st12{fill:url(#SVGID_13_);}
	.st13{fill:url(#SVGID_14_);}
	.st14{fill:url(#SVGID_15_);}
	.st15{fill:url(#SVGID_16_);}
	.st16{fill:url(#SVGID_17_);}
	.st17{fill:url(#SVGID_18_);}
	.st18{fill:url(#SVGID_19_);}
	.st19{fill:url(#SVGID_20_);}
	.st20{fill:url(#SVGID_21_);}
	.st21{fill:url(#SVGID_22_);}
	.st22{fill:url(#SVGID_23_);}
	.st23{fill:url(#SVGID_24_);}
	.st24{fill:url(#SVGID_25_);}
	.st25{fill:url(#SVGID_26_);}
	.st26{fill:url(#SVGID_27_);}
	.st27{fill:url(#SVGID_28_);}
	.st28{fill:url(#SVGID_29_);}
	.st29{fill:url(#SVGID_30_);}
	.st30{fill:url(#SVGID_31_);}
	.st31{fill:url(#SVGID_32_);}
	.st32{fill:url(#SVGID_33_);}
	.st33{fill:url(#SVGID_34_);}
	.st34{fill:url(#SVGID_35_);}
	.st35{fill:url(#SVGID_36_);}
	.st36{fill:url(#SVGID_37_);}
	.st37{fill:url(#SVGID_38_);}
	.st38{fill:url(#SVGID_39_);}
	.st39{fill:url(#SVGID_40_);}
	.st40{fill:url(#SVGID_41_);}
	.st41{fill:url(#SVGID_42_);}
	.st42{fill:url(#SVGID_43_);}
	.st43{fill:url(#SVGID_44_);}
	.st44{fill:url(#SVGID_45_);}
	.st45{fill:url(#SVGID_46_);}
	.st46{fill:url(#SVGID_47_);}
	.st47{fill:url(#SVGID_48_);}
	.st48{fill:url(#SVGID_49_);}
</style>
<g>
	
		<linearGradient id="SVGID_1_" gradientUnits="userSpaceOnUse" x1="295.5" y1="422.7" x2="295.5" y2="409.5184" gradientTransform="matrix(1 0 0 -1 0 796)">
		<stop  offset="0" style="stop-color:#A8B4BD"/>
		<stop  offset="1" style="stop-color:#D1D9DF"/>
	</linearGradient>
	<path class="st0" d="M295.5,386.5c1.1,0,1.9-0.9,1.9-1.9v-9.4c0-1.1-0.9-1.9-1.9-1.9c-1.1,0-1.9,0.9-1.9,1.9v9.3
		C293.6,385.6,294.4,386.5,295.5,386.5z"/>
	
		<linearGradient id="SVGID_2_" gradientUnits="userSpaceOnUse" x1="478.75" y1="409.2758" x2="478.75" y2="390.4913" gradientTransform="matrix(1 0 0 -1 0 796)">
		<stop  offset="0" style="stop-color:#A8B4BD"/>
		<stop  offset="1" style="stop-color:#D1D9DF"/>
	</linearGradient>
	<path class="st1" d="M486.8,386.7h-5c-0.2,0-0.4,0.2-0.4,0.4v12.8c0,0-1.3,1-3,1c-1.8,0-2.2-0.8-2.2-2.5c0-1.8,0-11.2,0-11.2
		c0-0.2-0.2-0.4-0.4-0.4h-5.1c-0.2,0-0.4,0.2-0.4,0.4c0,0,0,6.8,0,12s2.8,6.4,6.8,6.4c3.3,0,5.9-1.8,5.9-1.8s0.1,1,0.2,1.1
		s0.2,0.2,0.4,0.2h3.2c0.2,0,0.4-0.2,0.4-0.4v-17.4C487.2,386.8,487.1,386.7,486.8,386.7z"/>
	
		<linearGradient id="SVGID_3_" gradientUnits="userSpaceOnUse" x1="439.7633" y1="414.5316" x2="439.7633" y2="390.4913" gradientTransform="matrix(1 0 0 -1 0 796)">
		<stop  offset="0" style="stop-color:#A8B4BD"/>
		<stop  offset="1" style="stop-color:#D1D9DF"/>
	</linearGradient>
	<path class="st2" d="M445.9,400.7c-0.2,0-0.8,0.1-1.4,0.1c-1.8,0-2.4-0.9-2.4-1.9s0-7.3,0-7.3h3.7c0.2,0,0.4-0.2,0.4-0.4v-4
		c-0.1-0.4-0.3-0.6-0.5-0.6H442v-4.9c0-0.2-0.1-0.3-0.3-0.3h-5.1c-0.2,0-0.3,0.1-0.3,0.3v5.1c0,0-2.5,0.7-2.7,0.7
		c-0.2,0.1-0.3,0.2-0.3,0.4v3.2c0,0.2,0.2,0.4,0.4,0.4h2.6c0,0,0,3.3,0,7.7c0,5.7,4,6.3,6.7,6.3c1.3,0,2.7-0.4,3-0.5
		c0.2-0.1,0.2-0.2,0.2-0.4v-3.5C446.3,400.9,446.1,400.7,445.9,400.7z"/>
	
		<linearGradient id="SVGID_4_" gradientUnits="userSpaceOnUse" x1="458.2" y1="417.8408" x2="458.2" y2="390.978" gradientTransform="matrix(1 0 0 -1 0 796)">
		<stop  offset="0" style="stop-color:#A8B4BD"/>
		<stop  offset="1" style="stop-color:#D1D9DF"/>
	</linearGradient>
	<path class="st3" d="M467.5,378.2h-5c-0.2,0-0.4,0.2-0.4,0.4v9.6h-7.8v-9.6c0-0.2-0.2-0.4-0.4-0.4h-5c-0.2,0-0.4,0.2-0.4,0.4v26.1
		c0,0.2,0.2,0.4,0.4,0.4h5c0.2,0,0.4-0.2,0.4-0.4v-11.2h7.8v11.2c0,0.2,0.2,0.4,0.4,0.4h5c0.2-0.1,0.4-0.2,0.4-0.5v-26
		C467.9,378.4,467.7,378.2,467.5,378.2z"/>
	
		<linearGradient id="SVGID_5_" gradientUnits="userSpaceOnUse" x1="696.8212" y1="408.9693" x2="696.8212" y2="399.7411" gradientTransform="matrix(1 0 0 -1 0 796)">
		<stop  offset="0" style="stop-color:#A8B4BD"/>
		<stop  offset="1" style="stop-color:#D1D9DF"/>
	</linearGradient>
	<path class="st4" d="M700.2,387c-2.2,0-4.6,0-6.8,0c-0.8,0-1.2,0.4-1.2,1.3c0,2.2,0,4.6,0,6.8c0,0.8,0.4,1.2,1.2,1.2
		c1.1,0,2.2,0,3.4,0c1.2,0,2.2,0,3.4,0c0.9,0,1.3-0.4,1.3-1.2c0-2.2,0-4.6,0-6.8C701.4,387.4,701.1,387,700.2,387z"/>
	
		<linearGradient id="SVGID_6_" gradientUnits="userSpaceOnUse" x1="359" y1="422.7" x2="359" y2="409.5184" gradientTransform="matrix(1 0 0 -1 0 796)">
		<stop  offset="0" style="stop-color:#A8B4BD"/>
		<stop  offset="1" style="stop-color:#D1D9DF"/>
	</linearGradient>
	<path class="st5" d="M359,386.5c1.1,0,1.9-0.9,1.9-1.9v-9.4c0-1.1-0.9-1.9-1.9-1.9c-1.1,0-1.9,0.9-1.9,1.9v9.3
		C357.1,385.6,357.9,386.5,359,386.5z"/>
	
		<linearGradient id="SVGID_7_" gradientUnits="userSpaceOnUse" x1="498.4009" y1="417.8408" x2="498.4009" y2="390.4913" gradientTransform="matrix(1 0 0 -1 0 796)">
		<stop  offset="0" style="stop-color:#A8B4BD"/>
		<stop  offset="1" style="stop-color:#D1D9DF"/>
	</linearGradient>
	<path class="st6" d="M500.3,386.1c-2.8,0-4.8,1.3-4.8,1.3v-8.9c0-0.2-0.2-0.4-0.4-0.4h-5c-0.2,0-0.4,0.2-0.4,0.4v26.1
		c0,0.2,0.2,0.4,0.4,0.4h3.4c0.2,0,0.3-0.1,0.4-0.2c0.1-0.2,0.2-1.3,0.2-1.3s2,1.9,5.9,1.9c4.5,0,7.1-2.3,7.1-10.3
		C507.2,387.1,503,386,500.3,386.1z M498.3,400.7c-1.7,0-2.8-0.8-2.8-0.8v-8.3c0,0,1.2-0.7,2.5-0.8c1.8-0.2,3.5,0.3,3.5,4.6
		C501.5,400,500.7,400.8,498.3,400.7z"/>
	
		<linearGradient id="SVGID_8_" gradientUnits="userSpaceOnUse" x1="428.5" y1="417.3541" x2="428.5" y2="410.9258" gradientTransform="matrix(1 0 0 -1 0 796)">
		<stop  offset="0" style="stop-color:#A8B4BD"/>
		<stop  offset="1" style="stop-color:#D1D9DF"/>
	</linearGradient>
	<path class="st7" d="M428.5,378.6c-1.8,0-3.2,1.5-3.2,3.2c0,1.8,1.5,3.2,3.2,3.2c1.8,0.1,3.2-1.4,3.2-3.2S430.2,378.6,428.5,378.6z
		"/>
	
		<linearGradient id="SVGID_9_" gradientUnits="userSpaceOnUse" x1="337.8" y1="422.7" x2="337.8" y2="409.5184" gradientTransform="matrix(1 0 0 -1 0 796)">
		<stop  offset="0" style="stop-color:#A8B4BD"/>
		<stop  offset="1" style="stop-color:#D1D9DF"/>
	</linearGradient>
	<path class="st8" d="M337.8,386.5c1.1,0,1.9-0.9,1.9-1.9v-9.4c0-1.1-0.9-1.9-1.9-1.9c-1.1,0-1.9,0.9-1.9,1.9v9.3
		C335.9,385.6,336.8,386.5,337.8,386.5z"/>
	
		<linearGradient id="SVGID_10_" gradientUnits="userSpaceOnUse" x1="316.7" y1="422.7" x2="316.7" y2="409.5184" gradientTransform="matrix(1 0 0 -1 0 796)">
		<stop  offset="0" style="stop-color:#A8B4BD"/>
		<stop  offset="1" style="stop-color:#D1D9DF"/>
	</linearGradient>
	<path class="st9" d="M318.6,384.6v-9.4c0-1.1-0.9-1.9-1.9-1.9c-1.1,0-1.9,0.9-1.9,1.9v9.3c0,1.1,0.9,1.9,1.9,1.9
		C317.7,386.5,318.6,385.6,318.6,384.6z"/>
	
		<linearGradient id="SVGID_11_" gradientUnits="userSpaceOnUse" x1="322.3031" y1="399.2364" x2="322.3031" y2="383.3077" gradientTransform="matrix(1 0 0 -1 0 796)">
		<stop  offset="0" style="stop-color:#A8B4BD"/>
		<stop  offset="1" style="stop-color:#D1D9DF"/>
	</linearGradient>
	<path class="st10" d="M324,403.1l-1.1-0.3c-0.6-0.2-1.8-0.5-1.8-1.5c0-0.7,0.8-1.3,2.4-1.3c1.3,0,3,0.5,3,0.5v-3.3
		c-0.1,0-1.9-0.5-3.8-0.5c-3.6,0-5.7,1.9-5.7,4.8c0,2.5,1.8,3.8,4,4.5c0.2,0.1,0.6,0.2,0.8,0.3c1,0.3,1.7,0.8,1.7,1.5
		c0,0.9-0.9,1.4-2.8,1.4c-1.7,0-3.3-0.5-3.7-0.6v3.5c0.2,0,2.1,0.4,4.2,0.4c3,0,6.4-1.3,6.4-5.2C327.7,405.7,326.6,403.9,324,403.1z
		"/>
	
		<linearGradient id="SVGID_12_" gradientUnits="userSpaceOnUse" x1="296.85" y1="399.2325" x2="296.85" y2="383.3087" gradientTransform="matrix(1 0 0 -1 0 796)">
		<stop  offset="0" style="stop-color:#A8B4BD"/>
		<stop  offset="1" style="stop-color:#D1D9DF"/>
	</linearGradient>
	<path class="st11" d="M291,404.7c0,5,3.8,8,8.2,8c1.7,0,3.1-0.4,3.5-0.5v-4.1c-0.2,0.1-1.4,0.8-3.3,0.8c-2.6,0-4.3-1.8-4.3-4.1
		c0-2.4,1.7-4.1,4.3-4.1c1.9,0,3.1,0.7,3.3,0.8v-4.1c-0.4-0.1-1.7-0.6-3.5-0.6C294.4,396.8,291,400.1,291,404.7z"/>
	
		<linearGradient id="SVGID_13_" gradientUnits="userSpaceOnUse" x1="337.35" y1="399.2325" x2="337.35" y2="383.3087" gradientTransform="matrix(1 0 0 -1 0 796)">
		<stop  offset="0" style="stop-color:#A8B4BD"/>
		<stop  offset="1" style="stop-color:#D1D9DF"/>
	</linearGradient>
	<path class="st12" d="M331.5,404.7c0,5,3.8,8,8.2,8c1.7,0,3-0.4,3.5-0.5v-4.1c-0.2,0.1-1.4,0.8-3.3,0.8c-2.6,0-4.2-1.8-4.2-4.1
		c0-2.4,1.7-4.1,4.2-4.1c1.9,0,3.1,0.7,3.3,0.8v-4.1c-0.4-0.1-1.7-0.6-3.5-0.6C334.9,396.8,331.5,400.1,331.5,404.7z"/>
	
		<linearGradient id="SVGID_14_" gradientUnits="userSpaceOnUse" x1="327.3" y1="417.4" x2="327.3" y2="409.5185" gradientTransform="matrix(1 0 0 -1 0 796)">
		<stop  offset="0" style="stop-color:#A8B4BD"/>
		<stop  offset="1" style="stop-color:#D1D9DF"/>
	</linearGradient>
	<path class="st13" d="M327.3,378.6c-1.1,0-1.9,0.9-1.9,1.9v4c0,1.1,0.9,1.9,1.9,1.9c1.1,0,1.9-0.9,1.9-1.9v-4
		C329.2,379.5,328.3,378.6,327.3,378.6z"/>
	
		<linearGradient id="SVGID_15_" gradientUnits="userSpaceOnUse" x1="306.1" y1="429.9534" x2="306.1" y2="405.6873" gradientTransform="matrix(1 0 0 -1 0 796)">
		<stop  offset="0" style="stop-color:#A8B4BD"/>
		<stop  offset="1" style="stop-color:#D1D9DF"/>
	</linearGradient>
	<path class="st14" d="M306.1,366c-1.1,0-1.9,0.9-1.9,1.9v20.4c0,1.1,0.9,1.9,1.9,1.9c1.1,0,1.9-0.9,1.9-1.9v-20.4
		C308,366.9,307.2,366,306.1,366z"/>
	
		<linearGradient id="SVGID_16_" gradientUnits="userSpaceOnUse" x1="428.5" y1="409.3732" x2="428.5" y2="390.9732" gradientTransform="matrix(1 0 0 -1 0 796)">
		<stop  offset="0" style="stop-color:#A8B4BD"/>
		<stop  offset="1" style="stop-color:#D1D9DF"/>
	</linearGradient>
	<path class="st15" d="M431,386.6h-5c-0.2,0-0.4,0.2-0.4,0.5c0,0,0,14.5,0,17.2c0,0.5,0.3,0.7,0.7,0.7c0,0,2.1,0,4.5,0
		c0.5,0,0.6-0.2,0.6-0.7c0-1,0-4.6,0-5.3c0-0.7,0-12.1,0-12.1C431.4,386.8,431.2,386.6,431,386.6z"/>
	
		<linearGradient id="SVGID_17_" gradientUnits="userSpaceOnUse" x1="309.95" y1="398.9595" x2="309.95" y2="383.5815" gradientTransform="matrix(1 0 0 -1 0 796)">
		<stop  offset="0" style="stop-color:#A8B4BD"/>
		<stop  offset="1" style="stop-color:#D1D9DF"/>
	</linearGradient>
	<rect x="308" y="397" class="st16" width="3.9" height="15.4"/>
	
		<linearGradient id="SVGID_18_" gradientUnits="userSpaceOnUse" x1="369.6" y1="417.4" x2="369.6" y2="409.5185" gradientTransform="matrix(1 0 0 -1 0 796)">
		<stop  offset="0" style="stop-color:#A8B4BD"/>
		<stop  offset="1" style="stop-color:#D1D9DF"/>
	</linearGradient>
	<path class="st17" d="M369.6,378.6c-1.1,0-1.9,0.9-1.9,1.9v4c0,1.1,0.9,1.9,1.9,1.9c1.1,0,1.9-0.9,1.9-1.9v-4
		C371.5,379.5,370.6,378.6,369.6,378.6z"/>
	
		<linearGradient id="SVGID_19_" gradientUnits="userSpaceOnUse" x1="412.363" y1="419.0029" x2="412.363" y2="390.7" gradientTransform="matrix(1 0 0 -1 0 796)">
		<stop  offset="0" style="stop-color:#A8B4BD"/>
		<stop  offset="1" style="stop-color:#D1D9DF"/>
	</linearGradient>
	<path class="st18" d="M422.3,389.3h-8.9c-0.2,0-0.4,0.2-0.4,0.4v4.3c0,0.2,0.2,0.4,0.4,0.4h3.4v5.4c0,0-0.8,0.3-2.9,0.3
		c-2.5,0-6-1-6-8.7s3.7-8.8,7.1-8.8c3,0,4.3,0.5,5.1,0.8c0.2,0.1,0.5-0.2,0.5-0.4l1-4.2c0-0.1-0.1-0.2-0.2-0.4
		c-0.4-0.2-2.3-1.4-7.5-1.4c-5.7-0.1-11.9,2.4-11.9,14.5s6.9,13.8,12.8,13.8c4.9,0,7.8-2,7.8-2c0.1-0.1,0.1-0.2,0.1-0.3v-13.3
		C422.8,389.4,422.6,389.3,422.3,389.3z"/>
	
		<linearGradient id="SVGID_20_" gradientUnits="userSpaceOnUse" x1="284.9038" y1="417.4" x2="284.9038" y2="409.5185" gradientTransform="matrix(1 0 0 -1 0 796)">
		<stop  offset="0" style="stop-color:#A8B4BD"/>
		<stop  offset="1" style="stop-color:#D1D9DF"/>
	</linearGradient>
	<path class="st19" d="M284.9,378.6c-1.1,0-1.9,0.9-1.9,1.9v4c0,1.1,0.9,1.9,1.9,1.9c1.1,0,1.9-0.9,1.9-1.9v-4
		C286.9,379.5,286,378.6,284.9,378.6z"/>
	
		<linearGradient id="SVGID_21_" gradientUnits="userSpaceOnUse" x1="355.4" y1="399.2327" x2="355.4" y2="383.3089" gradientTransform="matrix(1 0 0 -1 0 796)">
		<stop  offset="0" style="stop-color:#A8B4BD"/>
		<stop  offset="1" style="stop-color:#D1D9DF"/>
	</linearGradient>
	<path class="st20" d="M355.4,396.8c-4.7,0-8.1,3.6-8.1,8s3.4,8,8.1,8s8.1-3.6,8.1-8C363.5,400.3,360.1,396.8,355.4,396.8z
		 M355.4,408.8c-2.3,0-4-1.8-4-4s1.7-4,4-4s4,1.8,4,4C359.4,407,357.7,408.8,355.4,408.8z"/>
	
		<linearGradient id="SVGID_22_" gradientUnits="userSpaceOnUse" x1="348.4" y1="429.9534" x2="348.4" y2="405.6873" gradientTransform="matrix(1 0 0 -1 0 796)">
		<stop  offset="0" style="stop-color:#A8B4BD"/>
		<stop  offset="1" style="stop-color:#D1D9DF"/>
	</linearGradient>
	<path class="st21" d="M350.3,388.4V368c0-1.1-0.9-1.9-1.9-1.9c-1.1,0-1.9,0.9-1.9,1.9v20.4c0,1.1,0.9,1.9,1.9,1.9
		C349.5,390.3,350.3,389.5,350.3,388.4z"/>
	
		<linearGradient id="SVGID_23_" gradientUnits="userSpaceOnUse" x1="1161.2863" y1="413.7592" x2="1161.2863" y2="391.1608" gradientTransform="matrix(1 0 0 -1 0 796)">
		<stop  offset="0" style="stop-color:#A8B4BD"/>
		<stop  offset="1" style="stop-color:#D1D9DF"/>
	</linearGradient>
	<path class="st22" d="M1161.7,382.2c-2.8,0-4.4,0.3-6.6,1.2c-0.6,0.3-1,0.7-1,1.3c0,0.8,0.7,1.3,1.4,1.3c0.2,0,0.4-0.1,0.6-0.1
		c1.6-0.8,3-1,5.1-1c4.1,0,6.5,2.1,6.5,5.9v0.8c-1.9-0.6-3.9-1-6.8-1c-5.5,0-9.3,2.5-9.3,7.1v0.1h0.3v0.1c0,4.5,4.1,6.8,8.2,6.8
		c3.8,0,6.4-1.8,7.9-3.8v2.2c0,0.9,0.7,1.5,1.5,1.5c1,0,1.5-0.7,1.5-1.6V391c0-2.8-0.8-5-2.2-6.4
		C1167.2,383,1164.8,382.2,1161.7,382.2z M1168.1,396.4c0,3.5-3.3,5.9-7.3,5.9c-3,0-5.5-1.6-5.5-4.4v-0.1c0-2.8,2.3-4.5,6.4-4.5
		c2.7,0,4.8,0.5,6.5,1V396.4z"/>
	
		<linearGradient id="SVGID_24_" gradientUnits="userSpaceOnUse" x1="878.9795" y1="415.0999" x2="878.9796" y2="392.7351" gradientTransform="matrix(1 0 0 -1 0 796)">
		<stop  offset="0" style="stop-color:#A8B4BD"/>
		<stop  offset="1" style="stop-color:#D1D9DF"/>
	</linearGradient>
	<path class="st23" d="M886.7,397.9l-7.3-17h-0.6l-7.3,17c-1.7,3.7-2,4.4-5.1,4.4v1h9.4v-1c-3.9,0-3.9-0.8-2.7-3.8l1-2.3h8.2l1,2.3
		c1.2,3,0.9,3.8-2.7,3.8v1h11.1v-1C889,402.2,888.4,401.6,886.7,397.9z M874.9,394.4l3.2-7.6l3.2,7.6H874.9z"/>
	
		<linearGradient id="SVGID_25_" gradientUnits="userSpaceOnUse" x1="907.5156" y1="414.2379" x2="907.5156" y2="391.9458" gradientTransform="matrix(1 0 0 -1 0 796)">
		<stop  offset="0" style="stop-color:#A8B4BD"/>
		<stop  offset="1" style="stop-color:#D1D9DF"/>
	</linearGradient>
	<path class="st24" d="M910.4,382.8c3.3,0,3.9,0.8,3.9,5.8v8.9l-13.2-15.7H895v1c3.3,0,3.9,0.8,3.9,5.8v8c0,5-0.6,5.8-3.9,5.8v1h9.7
		v-1c-3.3,0-3.9-0.8-3.9-5.8v-9.7l14.5,17.4h0.9v-15.6c0-4.9,0.6-5.8,3.9-5.8v-1h-9.7V382.8z"/>
	
		<linearGradient id="SVGID_26_" gradientUnits="userSpaceOnUse" x1="855.5013" y1="414.2378" x2="855.5013" y2="392.7399" gradientTransform="matrix(1 0 0 -1 0 796)">
		<stop  offset="0" style="stop-color:#A8B4BD"/>
		<stop  offset="1" style="stop-color:#D1D9DF"/>
	</linearGradient>
	<path class="st25" d="M856.7,381.7h-10.3v1c3.3,0,3.9,0.8,3.9,5.8v8c0,4.9-0.6,5.8-3.9,5.8v1h11.4v-1c-3.3,0-3.9-0.8-3.9-5.8v-2.4
		h2.8c5.1,0,8-2.7,8-6.1C864.6,384.4,861.8,381.7,856.7,381.7z M856.7,392.2h-2.8v-8.6h2.8c2.8,0,4.1,1.9,4.1,4.4
		C860.7,390.3,859.4,392.2,856.7,392.2z"/>
	
		<linearGradient id="SVGID_27_" gradientUnits="userSpaceOnUse" x1="1135.7795" y1="413.8546" x2="1135.7797" y2="391.2561" gradientTransform="matrix(1 0 0 -1 0 796)">
		<stop  offset="0" style="stop-color:#A8B4BD"/>
		<stop  offset="1" style="stop-color:#D1D9DF"/>
	</linearGradient>
	<path class="st26" d="M1151.8,383.7c0-0.8-0.7-1.5-1.6-1.5c-1,0-1.3,0.6-1.5,1.2l-5.6,16.1l-5.5-16c-0.2-0.8-0.8-1.3-1.7-1.3h-0.2
		c-0.9,0-1.3,0.6-1.6,1.3l-5.5,16l-5.5-15.9c-0.2-0.8-0.8-1.3-1.6-1.3c-1,0-1.6,0.8-1.6,1.5c0,0.3,0.1,0.7,0.2,1l6.6,18.5
		c0.4,1,1,1.5,1.8,1.5h0.1c0.9,0,1.5-0.5,1.8-1.5l5.5-15.7l5.5,15.7c0.3,1,1,1.5,1.8,1.5h0.1c0.8,0,1.4-0.5,1.8-1.5l6.7-18.6
		C1151.8,384.3,1151.8,384.1,1151.8,383.7z"/>
	
		<linearGradient id="SVGID_28_" gradientUnits="userSpaceOnUse" x1="1089.6624" y1="414.2647" x2="1089.6624" y2="391.0655" gradientTransform="matrix(1 0 0 -1 0 796)">
		<stop  offset="0" style="stop-color:#A8B4BD"/>
		<stop  offset="1" style="stop-color:#D1D9DF"/>
	</linearGradient>
	<path class="st27" d="M1110.4,381.8c-4.3,0-7,3-7,3c-1.4-1.8-3.3-3-6.7-3c-3.5,0-6.6,3-6.6,3c-1.4-1.8-3.8-3-5.8-3
		c-3.1,0-5.5,1.3-7.1,4.8l-4.5,10.5l-5.6-13.4c-0.8-1.6-2.5-2.3-4.2-1.5c-1.6,0.8-2.3,2.6-1.5,4.2l7.1,15.1c1,2.4,2.2,3.6,4.4,3.6
		c2.3,0,3.3-1.3,4.4-3.6c0,0,6.1-13.3,6.1-13.3c0.1-0.1,0.2-0.6,0.9-0.6c0.5,0,1,0.4,1,1v13c0,2,1,3.6,3.2,3.6
		c2.1,0,3.2-1.6,3.2-3.6v-10.6c0-2.1,1.5-3.3,3.4-3.3c2,0,3.3,1.3,3.3,3.3v10.6c0,2,1,3.6,3.2,3.6c2.1,0,3.2-1.6,3.2-3.6v-10.6
		c0-2.1,1.4-3.3,3.4-3.3c2,0,3.3,1.3,3.3,3.3v10.6c0,2,1,3.6,3.2,3.6c2.1,0,3.2-1.6,3.2-3.6v-12
		C1118.2,384.9,1114.7,381.8,1110.4,381.8z"/>
	
		<linearGradient id="SVGID_29_" gradientUnits="userSpaceOnUse" x1="1181.3103" y1="413.7665" x2="1181.3103" y2="391.2561" gradientTransform="matrix(1 0 0 -1 0 796)">
		<stop  offset="0" style="stop-color:#A8B4BD"/>
		<stop  offset="1" style="stop-color:#D1D9DF"/>
	</linearGradient>
	<path class="st28" d="M1185.9,382.3c-2.4,0-5.9,1.7-7.5,5.3v-3.8c0-1-0.8-1.6-1.6-1.6c-0.9-0.1-1.6,0.8-1.6,1.6v19.3
		c0,1,0.8,1.6,1.6,1.6c1,0,1.6-0.8,1.6-1.6v-7.5c0-6.4,3.5-9.5,7.7-10c0.9-0.1,1.4-0.8,1.4-1.6
		C1187.5,383,1186.8,382.3,1185.9,382.3z"/>
	
		<linearGradient id="SVGID_30_" gradientUnits="userSpaceOnUse" x1="1197.3292" y1="413.7592" x2="1197.3293" y2="391.0654" gradientTransform="matrix(1 0 0 -1 0 796)">
		<stop  offset="0" style="stop-color:#A8B4BD"/>
		<stop  offset="1" style="stop-color:#D1D9DF"/>
	</linearGradient>
	<path class="st29" d="M1207.5,393.3c0-5.8-3.6-11.1-10-11.1c-5.9,0-10.4,5.1-10.4,11.3v0.1c0.2,6.7,5.1,11.3,10.9,11.3
		c3.6,0,6.1-1.3,8.1-3.2c0.4-0.3,0.5-0.7,0.5-1c0-0.8-0.7-1.3-1.4-1.3c-0.4,0-0.7,0.2-1,0.4c-1.6,1.5-3.5,2.5-6.2,2.5
		c-3.8,0-7.2-2.7-7.5-7.3h15.5C1206.8,394.8,1207.5,394.2,1207.5,393.3z M1190.6,392.3c0.4-4.2,3.2-7.3,7-7.3
		c4.4-0.1,6.6,3.3,6.9,7.3H1190.6z"/>
	
		<linearGradient id="SVGID_31_" gradientUnits="userSpaceOnUse" x1="1018.2722" y1="415.0999" x2="1018.2722" y2="392.7352" gradientTransform="matrix(1 0 0 -1 0 796)">
		<stop  offset="0" style="stop-color:#A8B4BD"/>
		<stop  offset="1" style="stop-color:#D1D9DF"/>
	</linearGradient>
	<path class="st30" d="M1026.1,397.9l-7.3-17h-0.7l-7.3,17c-1.7,3.7-2,4.4-5.1,4.4v1h9.4v-1c-3.9,0-3.9-0.8-2.7-3.8l1-2.3h8.2l1,2.3
		c1.2,3,0.9,3.8-2.7,3.8v1h11.1v-1C1028.3,402.2,1027.7,401.6,1026.1,397.9z M1014.1,394.4l3.2-7.6l3.2,7.6H1014.1z"/>
	
		<linearGradient id="SVGID_32_" gradientUnits="userSpaceOnUse" x1="936.0052" y1="414.2379" x2="936.0052" y2="392.7395" gradientTransform="matrix(1 0 0 -1 0 796)">
		<stop  offset="0" style="stop-color:#A8B4BD"/>
		<stop  offset="1" style="stop-color:#D1D9DF"/>
	</linearGradient>
	<path class="st31" d="M935.2,381.7h-10.5v1c3.3,0,3.9,0.8,3.9,5.8v8c0,4.9-0.6,5.8-3.9,5.8v1h10.5c8.4,0,12.2-4.8,12.2-10.8
		C947.2,386.7,943.6,381.7,935.2,381.7z M935.3,401.4h-0.4c-2.5,0-2.9-0.6-2.9-3.8v-14.1h3.2c6.6,0,7.9,5,7.9,8.9
		C943.2,396.5,941.9,401.4,935.3,401.4z"/>
	
		<linearGradient id="SVGID_33_" gradientUnits="userSpaceOnUse" x1="964.5875" y1="415.1" x2="964.5875" y2="391.9" gradientTransform="matrix(1 0 0 -1 0 796)">
		<stop  offset="0" style="stop-color:#A8B4BD"/>
		<stop  offset="1" style="stop-color:#D1D9DF"/>
	</linearGradient>
	<path class="st32" d="M964.6,380.9c-6.7,0-12.2,5.3-12.2,11.6c0,6.4,5.5,11.6,12.2,11.6s12.2-5.2,12.2-11.6
		C976.7,386.2,971.3,380.9,964.6,380.9z M964.6,402.2c-5.8,0-8.1-5.4-8.1-9.7s2.2-9.7,8.1-9.7c5.8,0,8.1,5.4,8.1,9.7
		C972.7,396.8,970.4,402.2,964.6,402.2z"/>
	
		<linearGradient id="SVGID_34_" gradientUnits="userSpaceOnUse" x1="992.2883" y1="414.2378" x2="992.2883" y2="392.7399" gradientTransform="matrix(1 0 0 -1 0 796)">
		<stop  offset="0" style="stop-color:#A8B4BD"/>
		<stop  offset="1" style="stop-color:#D1D9DF"/>
	</linearGradient>
	<path class="st33" d="M996.6,397.6l-3.1-3.7c3.7-0.5,6-3,6-6c0-3.5-2.8-6.1-8-6.1h-10.3v1c3.3,0,3.9,0.8,3.9,5.8v8
		c0,4.9-0.6,5.8-3.9,5.8v1h11.4v-1c-3.3,0-3.9-0.8-3.9-5.8v-2.4h1.4l6.8,9.3h6.3v-1C1000.9,402,998.6,400,996.6,397.6z M988.7,392.2
		v-8.6h2.9c2.8,0,4.1,1.9,4.1,4.4c0,2.3-1.3,4.3-4.1,4.3L988.7,392.2L988.7,392.2z"/>
	
		<linearGradient id="SVGID_35_" gradientUnits="userSpaceOnUse" x1="730.4393" y1="415.6419" x2="730.4393" y2="393.4429" gradientTransform="matrix(1 0 0 -1 0 796)">
		<stop  offset="0" style="stop-color:#A8B4BD"/>
		<stop  offset="1" style="stop-color:#D1D9DF"/>
	</linearGradient>
	<path class="st34" d="M734.7,391.2c-0.9-0.4-1.8-0.8-2.8-1.2c-1.3-0.4-2.6-0.7-3.9-1.2c-1.4-0.5-1.9-1.5-1.8-3
		c0.2-1.8,1.8-3.1,3.8-3.3c2.2-0.1,4,1.2,4.3,3c0.1,0.5,0.3,0.7,0.8,0.7c0.2,0,0.3,0,0.4,0c1.2,0.3,1.3,0.2,1-1.2
		c0-0.1-0.1-0.1-0.1-0.2c-0.7-2.3-2.4-3.8-4.7-4.4c-2.5-0.6-4.7,0.1-6.5,2c-2.2,2.3-2.3,7.2,2,8.8c0.8,0.4,1.7,0.4,2.5,0.8
		c1.3,0.4,2.8,0.9,3.9,1.5c1.3,0.6,1.6,1.8,1.4,3.1c-0.2,1.2-0.9,2-1.8,2.6c-2.6,1.8-6.5,0.7-7.5-2.1c-0.2-0.4-0.2-0.9-0.4-1.2
		c-0.4-0.2-0.9-0.1-1.3-0.1c-0.1,0-0.1,0-0.1,0c-0.6-0.1-0.8,0.2-0.7,0.7c0.1,0.2,0.1,0.3,0.1,0.4c0.6,2.8,2.8,4.7,5.7,5.2
		c3.1,0.4,5.8-0.4,7.6-3.1C738.6,396.4,737.7,392.9,734.7,391.2z"/>
	
		<linearGradient id="SVGID_36_" gradientUnits="userSpaceOnUse" x1="696.7763" y1="421.3333" x2="696.7763" y2="387.4666" gradientTransform="matrix(1 0 0 -1 0 796)">
		<stop  offset="0" style="stop-color:#A8B4BD"/>
		<stop  offset="1" style="stop-color:#D1D9DF"/>
	</linearGradient>
	<path class="st35" d="M708,374.7c-7.4,0-15,0-22.4,0c-3.3,0-5.7,2.5-5.7,5.7c0,7.4,0,14.9,0,22.4c0,3.3,2.5,5.7,5.8,5.7
		c7.4,0,14.8,0,22.2,0c3.4,0,5.8-2.4,5.8-5.8c0-3.7,0-7.3,0-11.1c0-3.8,0-7.5,0-11.2C713.7,377.2,711.2,374.7,708,374.7z
		 M707.7,400.2c0,1.5-0.7,2.2-2.2,2.2c-5.7,0-11.5,0-17.3,0c-1.5,0-2.2-0.6-2.2-2.2c0-2.9,0-5.7,0-8.7c-0.1-2.8-0.1-5.6-0.1-8.5
		c0-1.5,0.6-2.2,2.2-2.2c5.7,0,11.5,0,17.3,0c1.4,0,2.2,0.6,2.2,2.2C707.7,388.6,707.7,394.5,707.7,400.2z"/>
	
		<linearGradient id="SVGID_37_" gradientUnits="userSpaceOnUse" x1="783.6052" y1="409.3838" x2="783.6052" y2="393.1764" gradientTransform="matrix(1 0 0 -1 0 796)">
		<stop  offset="0" style="stop-color:#A8B4BD"/>
		<stop  offset="1" style="stop-color:#D1D9DF"/>
	</linearGradient>
	<path class="st36" d="M790,387c-0.4,0-0.6,0.1-0.5,0.5c0,0.5,0,1,0,1.7c-3.1-3.8-8.5-3.1-11.3-0.5c-3,2.8-3.6,7.4-1.1,10.8
		c1.5,2,3.6,3,6,3.3c2.5,0.2,4.7-0.6,6.4-2.6c0,0.4,0,0.5,0,0.7c0,1.5,0,1.5,1.5,1.5c0.6,0,0.8-0.2,0.8-0.7c0-4.4,0-8.7,0-13
		C791.7,387,791.7,387,790,387z M783.7,400.6c-3.4,0-6-2.5-6-5.9c0-3.4,2.5-6,6-6c3.3,0,5.8,2.7,5.8,5.9
		C789.5,398,786.9,400.6,783.7,400.6z"/>
	
		<linearGradient id="SVGID_38_" gradientUnits="userSpaceOnUse" x1="747.7758" y1="409.3641" x2="747.7758" y2="387.4666" gradientTransform="matrix(1 0 0 -1 0 796)">
		<stop  offset="0" style="stop-color:#A8B4BD"/>
		<stop  offset="1" style="stop-color:#D1D9DF"/>
	</linearGradient>
	<path class="st37" d="M754.1,387c-0.4,0-0.5,0.2-0.5,0.5c0,0.5,0,1,0,1.7c-3.3-3.9-8.8-3-11.5-0.4c-3.1,3-3.3,8-0.4,11.3
		c2.8,3,8.4,3.9,11.9,0.1c-0.1,2.2-0.1,4.5-0.1,6.7c0,1.5,0,1.5,1.5,1.5c0.8,0,0.8,0,0.8-0.8c0-6.4,0-12.7,0-19
		C755.9,386.9,755.9,386.9,754.1,387z M747.9,400.6c-3.4,0-5.9-2.5-5.9-6s2.5-5.9,5.9-5.9c3.1,0,5.8,2.8,5.8,6
		C753.7,398.1,751.2,400.6,747.9,400.6z"/>
	
		<linearGradient id="SVGID_39_" gradientUnits="userSpaceOnUse" x1="766.0328" y1="409.0589" x2="766.0329" y2="393.1135" gradientTransform="matrix(1 0 0 -1 0 796)">
		<stop  offset="0" style="stop-color:#A8B4BD"/>
		<stop  offset="1" style="stop-color:#D1D9DF"/>
	</linearGradient>
	<path class="st38" d="M771.1,387c-0.5,0-0.6,0.2-0.6,0.6c0,2.2,0,4.4,0,6.5c0,0.9,0,1.7-0.1,2.6c-0.3,2.1-1.8,3.6-3.9,3.9
		c-2.7,0.4-4.4-1-4.8-3.7c-0.1-0.6-0.1-1.2-0.1-1.7c0-2.2,0-4.4,0-6.6c0-1.7,0-1.7-1.8-1.7c-0.4,0-0.6,0.2-0.6,0.6
		c0,1.1,0,2.1,0,3.1c0,2.1,0,4.2,0.1,6.4c0.2,2.8,1.8,4.7,4.4,5.5c2.5,0.7,4.8,0.4,6.8-1.7c0.1,1.6,0.1,1.5,1.6,1.6
		c0.6,0,0.7-0.2,0.7-0.7c0-4.3,0-8.7,0-13C772.8,386.9,772.8,387,771.1,387z"/>
	
		<linearGradient id="SVGID_40_" gradientUnits="userSpaceOnUse" x1="799.8632" y1="409.4987" x2="799.8632" y2="393.6479" gradientTransform="matrix(1 0 0 -1 0 796)">
		<stop  offset="0" style="stop-color:#A8B4BD"/>
		<stop  offset="1" style="stop-color:#D1D9DF"/>
	</linearGradient>
	<path class="st39" d="M804,387.8c-0.1-1.4,0-1.4-1.5-1.3c-1.8,0.3-3.3,1-4.6,2.6c0.1-0.6,0-1.1,0.1-1.5c0.1-0.5-0.1-0.8-0.7-0.7
		c-0.4,0.1-0.6,0.1-0.9,0c-0.6-0.1-0.7,0.2-0.7,0.7c0,4.4,0,8.7,0,13.1c0,1.7,0,1.6,1.6,1.6c0.5,0,0.7-0.2,0.7-0.7
		c0-2.3-0.1-4.7,0-7.1c0.1-3.1,2.3-5.7,5.2-5.8C803.8,388.6,804.1,388.6,804,387.8z"/>
	
		<linearGradient id="SVGID_41_" gradientUnits="userSpaceOnUse" x1="811.9721" y1="409.4655" x2="811.9721" y2="393.2591" gradientTransform="matrix(1 0 0 -1 0 796)">
		<stop  offset="0" style="stop-color:#A8B4BD"/>
		<stop  offset="1" style="stop-color:#D1D9DF"/>
	</linearGradient>
	<path class="st40" d="M811,386.6c-3.7,0.4-6.6,3.4-7.1,7c-0.4,3.9,1.8,7.4,5.3,8.7c3.7,1.3,7.6,0,9.6-3.2c0.1-0.2,0.2-0.4,0.4-0.9
		c-0.7,0-1.3-0.1-1.9,0c-0.4,0.1-0.7,0.2-0.9,0.4c-1.7,1.8-3.9,2.3-6.2,1.7c-2.3-0.6-3.6-2.3-4.2-4.7c0.5,0.1,0.8,0.1,1,0.1
		c4.1,0,8.2,0,12.3,0c0.4,0,0.7-0.1,0.7-0.6C820.3,390.1,815.8,386,811,386.6z M806.4,393.5c0.5-3,3-4.9,6-4.7
		c2.5,0.1,5,2.3,5.3,4.7C813.9,393.5,810.2,393.5,806.4,393.5z"/>
	
		<linearGradient id="SVGID_42_" gradientUnits="userSpaceOnUse" x1="544.05" y1="411.2252" x2="544.05" y2="391.9252" gradientTransform="matrix(1 0 0 -1 0 796)">
		<stop  offset="0" style="stop-color:#A8B4BD"/>
		<stop  offset="1" style="stop-color:#D1D9DF"/>
	</linearGradient>
	<path class="st41" d="M546.3,392.6c-1.3-0.7-2-1.3-2-2.2c0-1.1,0.9-1.7,2.4-1.7c1.4,0,2.5,0.4,3.3,0.7l1.2-3.7
		c-0.8-0.5-2.4-0.9-4.4-0.9c-4.6,0-7.7,2.6-7.7,6.3c0,2.1,1.5,3.7,3.5,4.8c1.6,0.9,2.2,1.6,2.2,2.5c0,1-0.8,1.8-2.3,1.8
		c-1.6,0-3.3-0.6-4.3-1.1l-1.3,3.7c1,0.7,3,1.3,5.2,1.3c4.7,0,8.1-2.3,8.1-6.5C550,395.3,548.3,393.7,546.3,392.6z"/>
	
		<linearGradient id="SVGID_43_" gradientUnits="userSpaceOnUse" x1="560.1523" y1="419.049" x2="560.1523" y2="392.249" gradientTransform="matrix(1 0 0 -1 0 796)">
		<stop  offset="0" style="stop-color:#A8B4BD"/>
		<stop  offset="1" style="stop-color:#D1D9DF"/>
	</linearGradient>
	<path class="st42" d="M565,384.7c-2.3,0-4.1,1.1-5.5,2.8h-0.1l2-10.5h-5.2l-5.1,26.8h5.2l1.7-9.2c0.7-3.5,2.5-5.6,4.1-5.6
		c1.2,0,1.6,0.8,1.6,1.9c0,0.7-0.1,1.6-0.2,2.3l-2,10.5h5.2l2.1-10.8c0.2-1.1,0.4-2.5,0.4-3.4C569.3,386.5,567.8,384.7,565,384.7z"
		/>
	
		<linearGradient id="SVGID_44_" gradientUnits="userSpaceOnUse" x1="579.5" y1="411.2631" x2="579.5" y2="391.8931" gradientTransform="matrix(1 0 0 -1 0 796)">
		<stop  offset="0" style="stop-color:#A8B4BD"/>
		<stop  offset="1" style="stop-color:#D1D9DF"/>
	</linearGradient>
	<path class="st43" d="M581.2,384.7c-6.3,0-10.5,5.7-10.5,12c0,4.1,2.5,7.3,7.2,7.3c6.2,0,10.4-5.5,10.4-12
		C588.3,388.3,586.1,384.7,581.2,384.7z M578.6,400.1c-1.8,0-2.5-1.5-2.5-3.4c0-3,1.6-7.9,4.4-7.9c1.9,0,2.5,1.6,2.5,3.2
		C582.9,395.1,581.4,400.1,578.6,400.1z"/>
	
		<linearGradient id="SVGID_45_" gradientUnits="userSpaceOnUse" x1="597.0022" y1="411.2631" x2="597.0022" y2="384.8286" gradientTransform="matrix(1 0 0 -1 0 796)">
		<stop  offset="0" style="stop-color:#A8B4BD"/>
		<stop  offset="1" style="stop-color:#D1D9DF"/>
	</linearGradient>
	<path class="st44" d="M601.7,384.7c-2.1,0-4.1,1.1-5.5,3.1h-0.1l0.3-2.8h-4.6c-0.2,1.9-0.6,4.8-1.1,7l-3.7,19.2h5.2l1.4-7.7h0.1
		c0.6,0.4,1.8,0.7,3.1,0.7c6.2,0,10.2-6.3,10.2-12.7C607.1,387.9,605.5,384.7,601.7,384.7z M596.7,400.2c-0.9,0-1.6-0.3-2.2-0.8
		l0.9-4.9c0.6-3.3,2.3-5.4,4.1-5.4c1.6,0,2.1,1.5,2.1,2.9C601.6,395.3,599.6,400.2,596.7,400.2z"/>
	
		<linearGradient id="SVGID_46_" gradientUnits="userSpaceOnUse" x1="614.45" y1="418.7833" x2="614.45" y2="413.124" gradientTransform="matrix(1 0 0 -1 0 796)">
		<stop  offset="0" style="stop-color:#A8B4BD"/>
		<stop  offset="1" style="stop-color:#D1D9DF"/>
	</linearGradient>
	<path class="st45" d="M614.6,377.2c-1.7,0-3,1.3-3,3c0,1.6,1,2.6,2.5,2.6h0.1c1.6,0,3-1.1,3.1-3
		C617.2,378.3,616.2,377.2,614.6,377.2z"/>
	
		<linearGradient id="SVGID_47_" gradientUnits="userSpaceOnUse" x1="611.6" y1="410.8452" x2="611.6" y2="392.2727" gradientTransform="matrix(1 0 0 -1 0 796)">
		<stop  offset="0" style="stop-color:#A8B4BD"/>
		<stop  offset="1" style="stop-color:#D1D9DF"/>
	</linearGradient>
	<polygon class="st46" points="607.2,403.7 612.5,403.7 616,385.2 610.8,385.2 	"/>
	
		<linearGradient id="SVGID_48_" gradientUnits="userSpaceOnUse" x1="624.4501" y1="419.429" x2="624.4501" y2="392.2727" gradientTransform="matrix(1 0 0 -1 0 796)">
		<stop  offset="0" style="stop-color:#A8B4BD"/>
		<stop  offset="1" style="stop-color:#D1D9DF"/>
	</linearGradient>
	<path class="st47" d="M629.4,385.1h-3.6l0.2-0.9c0.3-1.8,1.4-3.4,3.1-3.4c0.7,0,1.2,0.1,1.7,0.3l1-4.1c-0.6-0.3-1.6-0.5-2.8-0.5
		c-1.9,0-3.7,0.5-5.1,1.7c-1.8,1.5-2.6,3.7-3,5.9l-0.2,0.9h-2.4l-0.8,3.9h2.4l-2.8,14.7h5.2l2.8-14.7h3.6L629.4,385.1z"/>
	
		<linearGradient id="SVGID_49_" gradientUnits="userSpaceOnUse" x1="637.5001" y1="410.8452" x2="637.5001" y2="383.8409" gradientTransform="matrix(1 0 0 -1 0 796)">
		<stop  offset="0" style="stop-color:#A8B4BD"/>
		<stop  offset="1" style="stop-color:#D1D9DF"/>
	</linearGradient>
	<path class="st48" d="M638.8,393.5c-0.8,2-1.1,3.2-1.6,4.4h-0.1c-0.1-1.2-0.2-2.5-0.5-4.4l-0.8-8.4h-5.5l3.2,17.1
		c0.1,0.4,0,0.6-0.1,0.9c-0.6,1.2-1.6,2.3-2.8,3.2c-1,0.7-2.1,1.2-3,1.5l1.4,4.4c1.1-0.2,3.3-1.1,5.1-2.8c2.4-2.2,4.6-5.7,6.9-10.4
		l6.4-13.7H642L638.8,393.5z"/>
</g>
</svg>
