<svg xmlns="http://www.w3.org/2000/svg" xmlns:xlink="http://www.w3.org/1999/xlink" preserveAspectRatio="xMidYMid" width="80" height="80" viewBox="0 0 80 80">
  <defs>
    <style>
      .cls-1 {
        filter: url(#color-overlay-1);
      }

      .cls-2 {
        fill: #737a80;
        fill-rule: evenodd;
      }
    </style>

    <filter id="color-overlay-1" filterUnits="userSpaceOnUse">
      <feFlood flood-color="#737a80"/>
      <feComposite operator="in" in2="SourceGraphic"/>
      <feBlend in2="SourceGraphic" result="solidFill"/>
    </filter>
  </defs>
  <g id="artboard-1">
    <path d="M50.000,31.161 L57.071,38.232 L58.839,40.000 L57.071,41.768 L50.000,48.839 L48.232,47.071 L55.303,40.000 L48.232,32.929 L50.000,31.161 ZM44.443,28.249 L37.972,52.398 L35.557,51.751 L42.028,27.602 L44.443,28.249 ZM40.000,70.000 C23.431,70.000 10.000,56.569 10.000,40.000 C10.000,36.625 10.583,33.392 11.611,30.364 C12.130,30.834 12.676,31.275 13.262,31.664 C12.442,34.297 12.000,37.097 12.000,40.000 C12.000,55.464 24.536,68.000 40.000,68.000 C55.464,68.000 68.000,55.464 68.000,40.000 C68.000,24.536 55.464,12.000 40.000,12.000 C37.598,12.000 35.279,12.335 33.054,12.904 C32.692,12.290 32.294,11.700 31.846,11.151 C34.442,10.419 37.170,10.000 40.000,10.000 C56.569,10.000 70.000,23.431 70.000,40.000 C70.000,56.569 56.569,70.000 40.000,70.000 ZM30.000,48.839 L22.929,41.768 L21.161,40.000 L22.929,38.232 L30.000,31.161 L31.768,32.929 L24.697,40.000 L31.768,47.071 L30.000,48.839 ZM21.000,30.000 C15.485,30.000 11.000,25.515 11.000,20.000 C11.000,14.485 15.485,10.000 21.000,10.000 C26.515,10.000 31.000,14.485 31.000,20.000 C31.000,25.515 26.515,30.000 21.000,30.000 ZM21.000,12.011 C16.594,12.011 13.011,15.594 13.011,20.000 C13.011,24.406 16.594,27.989 21.000,27.989 C25.406,27.989 28.989,24.406 28.989,20.000 C28.989,15.594 25.406,12.011 21.000,12.011 ZM24.259,23.393 L20.378,21.156 C19.952,20.898 19.749,20.420 19.815,19.959 L19.815,15.556 C19.815,14.904 20.348,14.370 21.000,14.370 C21.652,14.370 22.185,14.904 22.185,15.556 L22.185,19.453 L25.474,21.348 C26.037,21.689 26.215,22.415 25.889,22.978 C25.563,23.541 24.822,23.733 24.259,23.393 Z" class="cls-2"/>
  </g>
</svg>
