<svg xmlns="http://www.w3.org/2000/svg" xmlns:xlink="http://www.w3.org/1999/xlink" preserveAspectRatio="xMidYMid" width="80" height="80" viewBox="0 0 80 80">
  <defs>
    <style>
      .cls-1 {
        filter: url(#color-overlay-1);
      }

      .cls-2 {
        fill: #737a80;
        fill-rule: evenodd;
      }
    </style>

    <filter id="color-overlay-1" filterUnits="userSpaceOnUse">
      <feFlood flood-color="#737a80"/>
      <feComposite operator="in" in2="SourceGraphic"/>
      <feBlend in2="SourceGraphic" result="solidFill"/>
    </filter>
  </defs>
  <g id="artboard-1">
    <path d="M52.000,70.000 L28.000,70.000 C25.239,70.000 23.000,67.761 23.000,65.000 L23.000,15.000 C23.000,12.239 25.239,10.000 28.000,10.000 L52.000,10.000 C54.761,10.000 57.000,12.239 57.000,15.000 L57.000,65.000 C57.000,67.761 54.761,70.000 52.000,70.000 ZM55.000,20.000 L25.000,20.000 L25.000,60.000 L55.000,60.000 L55.000,20.000 ZM40.000,67.000 C38.895,67.000 38.000,66.105 38.000,65.000 C38.000,63.895 38.895,63.000 40.000,63.000 C41.105,63.000 42.000,63.895 42.000,65.000 C42.000,66.105 41.105,67.000 40.000,67.000 ZM40.000,50.000 C45.523,50.000 50.000,45.523 50.000,40.000 C50.000,34.477 45.523,30.000 40.000,30.000 C34.477,30.000 30.000,34.477 30.000,40.000 C30.000,45.523 34.477,50.000 40.000,50.000 ZM35.757,34.343 L40.000,38.586 L44.243,34.343 L45.657,35.757 L41.414,40.000 L45.657,44.243 L44.243,45.657 L40.000,41.414 L35.757,45.657 L34.343,44.243 L38.586,40.000 L34.343,35.757 L35.757,34.343 ZM40.000,16.000 C39.448,16.000 39.000,15.552 39.000,15.000 C39.000,14.448 39.448,14.000 40.000,14.000 C40.552,14.000 41.000,14.448 41.000,15.000 C41.000,15.552 40.552,16.000 40.000,16.000 Z" class="cls-2"/>
  </g>
</svg>
