<svg xmlns="http://www.w3.org/2000/svg" xmlns:xlink="http://www.w3.org/1999/xlink" preserveAspectRatio="xMidYMid" width="80" height="80" viewBox="0 0 80 80">
  <defs>
    <style>
      .cls-1 {
        filter: url(#color-overlay-1);
      }

      .cls-2 {
        fill: #737a80;
        fill-rule: evenodd;
      }
    </style>

    <filter id="color-overlay-1" filterUnits="userSpaceOnUse">
      <feFlood flood-color="#737a80"/>
      <feComposite operator="in" in2="SourceGraphic"/>
      <feBlend in2="SourceGraphic" result="solidFill"/>
    </filter>
  </defs>
  <g id="artboard-1">
    <path d="M60.508,32.594 L62.102,31.000 L40.000,8.898 L17.898,31.000 L19.492,32.594 L18.042,34.044 L14.997,31.000 L40.000,5.997 L65.003,31.000 L61.958,34.044 L60.508,32.594 ZM68.185,43.099 L40.000,71.284 L11.815,43.099 L40.000,14.914 L68.185,43.099 ZM40.000,67.003 L64.003,43.000 L40.000,18.997 L15.997,43.000 L40.000,67.003 ZM42.882,31.207 C43.028,31.031 43.292,30.943 43.526,31.002 C44.376,31.237 45.196,31.589 45.958,32.000 C46.163,32.117 46.280,32.352 46.250,32.587 C46.221,32.763 46.221,32.939 46.221,33.086 C46.221,35.082 47.862,36.725 49.883,36.725 C50.029,36.725 50.176,36.725 50.381,36.696 C50.615,36.667 50.850,36.784 50.967,36.990 C51.377,37.753 51.728,38.575 51.963,39.426 C52.021,39.661 51.963,39.925 51.758,40.072 C51.611,40.189 51.494,40.277 51.377,40.395 C50.674,41.099 50.293,42.009 50.293,42.978 C50.293,43.946 50.674,44.885 51.377,45.561 C51.465,45.678 51.611,45.766 51.758,45.883 C51.963,46.030 52.021,46.294 51.963,46.529 C51.728,47.380 51.377,48.202 50.967,48.965 C50.850,49.171 50.615,49.288 50.381,49.259 C50.205,49.230 50.029,49.230 49.883,49.230 C47.862,49.230 46.221,50.844 46.221,52.869 C46.221,53.016 46.221,53.163 46.250,53.368 C46.280,53.603 46.163,53.838 45.958,53.955 C45.196,54.366 44.376,54.689 43.526,54.953 C43.468,54.983 43.409,54.983 43.350,54.983 C43.175,54.983 42.999,54.895 42.882,54.748 C42.764,54.601 42.677,54.484 42.559,54.366 C41.886,53.691 40.948,53.310 39.982,53.310 C39.015,53.310 38.107,53.691 37.404,54.366 C37.316,54.454 37.199,54.601 37.081,54.748 C36.935,54.953 36.671,55.012 36.437,54.953 C35.587,54.719 34.767,54.366 34.006,53.955 C33.801,53.838 33.683,53.603 33.713,53.368 C33.742,53.192 33.742,53.016 33.742,52.869 C33.742,50.873 32.101,49.230 30.080,49.230 C29.934,49.230 29.787,49.230 29.582,49.259 C29.348,49.288 29.113,49.171 28.996,48.965 C28.586,48.202 28.264,47.380 28.000,46.529 C27.942,46.294 28.000,46.030 28.205,45.883 C28.352,45.766 28.469,45.678 28.586,45.561 C30.022,44.122 30.022,41.803 28.586,40.395 C28.498,40.306 28.381,40.189 28.205,40.072 C28.000,39.925 27.942,39.661 28.000,39.426 C28.235,38.575 28.586,37.753 28.996,36.990 C29.113,36.784 29.348,36.667 29.582,36.696 C29.758,36.725 29.934,36.725 30.080,36.725 C32.101,36.725 33.742,35.111 33.742,33.086 C33.742,32.939 33.742,32.792 33.713,32.587 C33.683,32.352 33.801,32.117 34.006,32.000 C34.767,31.589 35.587,31.266 36.437,31.002 C36.671,30.943 36.935,31.002 37.081,31.207 C37.199,31.354 37.286,31.471 37.404,31.589 C38.077,32.264 39.015,32.645 39.982,32.645 C40.948,32.645 41.856,32.264 42.559,31.589 C42.647,31.501 42.764,31.354 42.882,31.207 ZM34.029,42.994 C34.029,46.285 36.712,48.974 39.997,48.974 C43.282,48.974 45.965,46.285 45.965,42.994 C45.965,39.702 43.282,37.014 39.997,37.014 C36.712,37.014 34.029,39.702 34.029,42.994 Z" class="cls-2"/>
  </g>
</svg>
